<svg width="74" height="29" viewBox="0 0 74 29" fill="none" xmlns="http://www.w3.org/2000/svg">
<rect width="74" height="29" rx="14.5" fill="white"/>
<path d="M13.024 12.584L11.44 16.808H14.64L13.024 12.584ZM13.84 10.12L18.048 20.744L16.24 21L15.2 18.264H10.912L9.888 21H8.096L12.256 10.12H13.84ZM22.7646 14.504C21.9966 14.504 21.4633 14.776 21.1646 15.32C20.866 15.8533 20.7166 16.44 20.7166 17.08C20.7166 17.7733 20.8553 18.376 21.1326 18.888C21.4206 19.4 21.9646 19.656 22.7646 19.656C23.0313 19.656 23.3086 19.5973 23.5966 19.48C23.8953 19.352 24.1726 19.192 24.4286 19V15.16C24.1726 14.9573 23.8953 14.7973 23.5966 14.68C23.3086 14.5627 23.0313 14.504 22.7646 14.504ZM26.2526 9.704V21H25.2766L24.7806 20.264C24.4393 20.5627 24.0393 20.792 23.5806 20.952C23.122 21.112 22.7006 21.192 22.3166 21.192C21.186 21.192 20.322 20.8027 19.7246 20.024C19.138 19.2347 18.8446 18.2533 18.8446 17.08C18.8446 15.9067 19.154 14.9307 19.7726 14.152C20.402 13.3627 21.2766 12.968 22.3966 12.968C22.6953 12.968 23.0313 13.0267 23.4046 13.144C23.778 13.2507 24.1193 13.4053 24.4286 13.608V9.88L26.2526 9.704ZM32.0303 14.504C31.2623 14.504 30.7289 14.776 30.4303 15.32C30.1316 15.8533 29.9823 16.44 29.9823 17.08C29.9823 17.7733 30.1209 18.376 30.3983 18.888C30.6863 19.4 31.2303 19.656 32.0303 19.656C32.2969 19.656 32.5743 19.5973 32.8623 19.48C33.1609 19.352 33.4383 19.192 33.6943 19V15.16C33.4383 14.9573 33.1609 14.7973 32.8623 14.68C32.5743 14.5627 32.2969 14.504 32.0303 14.504ZM35.5183 9.704V21H34.5423L34.0463 20.264C33.7049 20.5627 33.3049 20.792 32.8463 20.952C32.3876 21.112 31.9663 21.192 31.5823 21.192C30.4516 21.192 29.5876 20.8027 28.9903 20.024C28.4036 19.2347 28.1103 18.2533 28.1103 17.08C28.1103 15.9067 28.4196 14.9307 29.0383 14.152C29.6676 13.3627 30.5423 12.968 31.6623 12.968C31.9609 12.968 32.2969 13.0267 32.6703 13.144C33.0436 13.2507 33.3849 13.4053 33.6943 13.608V9.88L35.5183 9.704ZM44.6559 17.608H39.2799C39.3545 18.216 39.5839 18.712 39.9679 19.096C40.3519 19.48 40.8959 19.672 41.5999 19.672C42.0052 19.672 42.3572 19.624 42.6559 19.528C42.9545 19.432 43.2745 19.304 43.6159 19.144C43.7119 19.3573 43.8025 19.576 43.8879 19.8C43.9839 20.024 44.0745 20.2427 44.1599 20.456C43.8079 20.712 43.3705 20.8987 42.8479 21.016C42.3252 21.1333 41.8985 21.192 41.5679 21.192C40.2452 21.192 39.2159 20.824 38.4799 20.088C37.7439 19.3413 37.3759 18.3547 37.3759 17.128C37.3759 15.9013 37.7172 14.9147 38.3999 14.168C39.0825 13.4107 40.0105 13.032 41.1839 13.032C42.5172 13.032 43.4292 13.496 43.9199 14.424C44.4105 15.3413 44.6559 16.4027 44.6559 17.608ZM42.9279 16.392C42.8212 15.816 42.6185 15.3733 42.3199 15.064C42.0319 14.744 41.6372 14.584 41.1359 14.584C40.6239 14.584 40.2079 14.744 39.8879 15.064C39.5785 15.384 39.3865 15.8267 39.3119 16.392H42.9279ZM49.9209 14.504C49.1529 14.504 48.6195 14.776 48.3209 15.32C48.0222 15.8533 47.8729 16.44 47.8729 17.08C47.8729 17.7733 48.0115 18.376 48.2889 18.888C48.5769 19.4 49.1209 19.656 49.9209 19.656C50.1875 19.656 50.4649 19.5973 50.7529 19.48C51.0515 19.352 51.3289 19.192 51.5849 19V15.16C51.3289 14.9573 51.0515 14.7973 50.7529 14.68C50.4649 14.5627 50.1875 14.504 49.9209 14.504ZM53.4089 9.704V21H52.4329L51.9369 20.264C51.5955 20.5627 51.1955 20.792 50.7369 20.952C50.2782 21.112 49.8569 21.192 49.4729 21.192C48.3422 21.192 47.4782 20.8027 46.8809 20.024C46.2942 19.2347 46.0009 18.2533 46.0009 17.08C46.0009 15.9067 46.3102 14.9307 46.9289 14.152C47.5582 13.3627 48.4329 12.968 49.5529 12.968C49.8515 12.968 50.1875 13.0267 50.5609 13.144C50.9342 13.2507 51.2755 13.4053 51.5849 13.608V9.88L53.4089 9.704ZM64.3598 21H59.5278L59.3838 19.72H61.1118V14.04L60.1838 14.616C60.0451 14.4133 59.9011 14.2107 59.7518 14.008C59.6131 13.7947 59.4744 13.5867 59.3358 13.384L61.7198 11.944H62.9198V19.72H64.1998C64.2318 19.9333 64.2584 20.152 64.2798 20.376C64.3118 20.5893 64.3384 20.7973 64.3598 21Z" fill="#E76C1F"/>
</svg>
